<svg width="24" height="24" fill="none" xmlns="http://www.w3.org/2000/svg">
    <path
    fill-rule="evenodd"
    clip-rule="evenodd"
    d="M13 2v4h-2V2h2ZM2 11h4v2H2v-2Zm17 0h-1v2h4v-2h-3Zm-6 7v4h-2v-4h2Zm4.657 1.071.707.707 1.414-1.414-.707-.707-1.414-1.414-.707-.707-1.414 1.414.707.707 1.414 1.414ZM7.05 8.465l-.707-.708L4.93 6.343l-.707-.707 1.414-1.414.707.707 1.414 1.414.707.707L7.05 8.465Zm12.021-2.122.707-.707-1.414-1.414-.707.707-1.414 1.414-.707.707 1.414 1.414.707-.707 1.414-1.414ZM8.464 16.95l-.707.707-1.414 1.414-.707.707-1.414-1.414.707-.707 1.414-1.414.707-.707 1.414 1.414ZM10 12a2 2 0 1 1 4 0 2 2 0 0 1-4 0Zm2-4a4 4 0 1 0 0 8 4 4 0 0 0 0-8Z"
    fill="#4B5EFC"
    opacity=".7"
    />
</svg>