<svg height="128" width="128" xmlns="http://www.w3.org/2000/svg">
  <linearGradient id="a" gradientTransform="matrix(.19235 0 0 .25 22.005 57)" gradientUnits="userSpaceOnUse" x1="10.276" x2="426.276" y1="260" y2="260">
    <stop offset="0" stop-color="#9a9996"/>
    <stop offset=".05" stop-color="#c0bfbc"/>
    <stop offset=".1" stop-color="#9a9996"/>
    <stop offset=".9" stop-color="#9a9996"/>
    <stop offset=".95" stop-color="#c0bfbc"/>
    <stop offset="1" stop-color="#9a9996"/>
  </linearGradient>
  <path d="M32 36h64a8 8 0 0 1 8 8v68a8 8 0 0 1-8 8H32a8 8 0 0 1-8-8V44a8 8 0 0 1 8-8zm0 0" fill="url(#a)"/>
  <path d="M32 8h64a8 8 0 0 1 8 8v90a8 8 0 0 1-8 8H32a8 8 0 0 1-8-8V16a8 8 0 0 1 8-8zm0 0" fill="#deddda"/>
  <path d="M38 18h52.04c2.21 0 4 1.79 4 4v6c0 2.21-1.79 4-4 4H38c-2.21 0-4-1.79-4-4v-6c0-2.21 1.79-4 4-4zm0 0" fill="#77767b"/>
  <path d="M38 36h52.04c2.21 0 4-1.79 4-4v-8c0-2.21-1.79-4-4-4H38c-2.21 0-4 1.79-4 4v8c0 2.21 1.79 4 4 4zm0 0" fill="#6fb182"/>
  <path d="M34 51v2c0 3.879 3.121 7 7 7s7-3.121 7-7v-2zm0 0" fill="#5e5c64"/>
  <path d="M41 44c3.867 0 7 3.133 7 7s-3.133 7-7 7-7-3.133-7-7 3.133-7 7-7zm0 0" fill="#9a9996"/>
  <path d="M57.012 51v2c0 3.879 3.12 7 7 7 3.875 0 7-3.121 7-7v-2zm0 0" fill="#5e5c64"/>
  <path d="M64 44c3.867 0 7 3.133 7 7s-3.133 7-7 7-7-3.133-7-7 3.133-7 7-7zm0 0" fill="#9a9996"/>
  <path d="M80 51v2c0 3.879 3.121 7 7 7s7-3.121 7-7v-2zm0 0" fill="#5e5c64"/>
  <path d="M87 44c3.867 0 7 3.133 7 7s-3.133 7-7 7-7-3.133-7-7 3.133-7 7-7zm0 0" fill="#9a9996"/>
  <path d="M34 73v2c0 3.879 3.121 7 7 7s7-3.121 7-7v-2zM57.012 73v2c0 3.879 3.12 7 7 7 3.875 0 7-3.121 7-7v-2zm0 0" fill="#3d3846"/>
  <path d="M41 66c3.867 0 7 3.133 7 7s-3.133 7-7 7-7-3.133-7-7 3.133-7 7-7zM64 66c3.867 0 7 3.133 7 7s-3.133 7-7 7-7-3.133-7-7 3.133-7 7-7zm0 0" fill="#5e5c64"/>
  <path d="M34 95v2c0 3.879 3.121 7 7 7s7-3.121 7-7v-2zm0 0" fill="#3d3846"/>
  <path d="M41 88c3.867 0 7 3.133 7 7s-3.133 7-7 7-7-3.133-7-7 3.133-7 7-7zm0 0" fill="#5e5c64"/>
  <path d="M57.012 95v2c0 3.879 3.12 7 7 7 3.875 0 7-3.121 7-7v-2zm0 0" fill="#3d3846"/>
  <path d="M64 88c3.867 0 7 3.133 7 7s-3.133 7-7 7-7-3.133-7-7 3.133-7 7-7zm0 0" fill="#5e5c64"/>
  <path d="M87 86c3.867 0 7 3.133 7 7v4c0 3.867-3.133 7-7 7s-7-3.133-7-7v-4c0-3.867 3.133-7 7-7zm0 0" fill="#c64600"/>
  <path d="M87 66c3.867 0 7 3.133 7 7v22c0 3.867-3.133 7-7 7s-7-3.133-7-7V73c0-3.867 3.133-7 7-7zm0 0" fill="#ff7800"/>
</svg>